<?xml version="1.0" standalone="no"?>
<!DOCTYPE svg PUBLIC "-//W3C//DTD SVG 1.1//EN" "http://www.w3.org/Graphics/SVG/1.1/DTD/svg11.dtd">
<svg width="117mm" height="73mm" viewBox="0 -73 117 73" xmlns="http://www.w3.org/2000/svg" version="1.1">
<title>OpenSCAD Model</title>
<path d="
M 39.1628,-0.00198364 L 39.2253,-0.00788879 L 39.2874,-0.0177155 L 39.3487,-0.0314178 L 39.409,-0.0489502 L 39.4681,-0.0702362
 L 39.5258,-0.0951843 L 39.5817,-0.123703 L 39.6358,-0.155685 L 39.6878,-0.190994 L 39.7374,-0.229492 L 39.7845,-0.271042
 L 39.8289,-0.31546 L 39.8705,-0.362579 L 39.909,-0.412216 L 39.9443,-0.464188 L 39.9763,-0.51825 L 40.0048,-0.574234
 L 40.0298,-0.631882 L 40.051,-0.690994 L 40.0686,-0.751312 L 40.0823,-0.812622 L 40.0921,-0.87468 L 40.098,-0.93721
 L 40.1,-1 L 40.1,-9.52499 L 58.15,-9.52499 L 58.2128,-9.52698 L 58.2753,-9.53288 L 58.3374,-9.54271
 L 58.3987,-9.55641 L 58.459,-9.57394 L 58.5181,-9.59523 L 58.5758,-9.62018 L 58.6317,-9.6487 L 58.6858,-9.68068
 L 58.7378,-9.71599 L 58.7874,-9.75449 L 58.8345,-9.79604 L 58.879,-9.84045 L 58.9205,-9.88757 L 58.959,-9.93721
 L 58.9943,-9.98918 L 59.0263,-10.0432 L 59.0548,-10.0992 L 59.0798,-10.1569 L 59.101,-10.216 L 59.1186,-10.2763
 L 59.1323,-10.3376 L 59.1421,-10.3997 L 59.148,-10.4622 L 59.15,-10.525 L 59.15,-13.335 L 76.2,-13.335
 L 76.2,-10.525 L 76.202,-10.4622 L 76.2079,-10.3997 L 76.2177,-10.3376 L 76.2314,-10.2763 L 76.2489,-10.216
 L 76.2702,-10.1569 L 76.2952,-10.0992 L 76.3237,-10.0432 L 76.3557,-9.98918 L 76.391,-9.93721 L 76.4295,-9.88757
 L 76.471,-9.84045 L 76.5155,-9.79604 L 76.5626,-9.75449 L 76.6122,-9.71599 L 76.6642,-9.68068 L 76.7182,-9.6487
 L 76.7742,-9.62018 L 76.8319,-9.59523 L 76.891,-9.57394 L 76.9513,-9.55641 L 77.0126,-9.54271 L 77.0747,-9.53288
 L 77.1372,-9.52698 L 77.2,-9.52499 L 95.25,-9.52499 L 95.25,-8.04849 L 95.252,-7.9857 L 95.2579,-7.92317
 L 95.2677,-7.86111 L 95.2814,-7.7998 L 95.299,-7.73949 L 95.3202,-7.68037 L 95.3452,-7.62273 L 95.3737,-7.56674
 L 95.4057,-7.51268 L 95.441,-7.46071 L 95.4795,-7.41107 L 95.521,-7.36395 L 95.5655,-7.31953 L 95.6126,-7.27798
 L 95.6622,-7.23949 L 95.7142,-7.20418 L 95.7682,-7.1722 L 95.8242,-7.14368 L 95.8819,-7.11873 L 95.941,-7.09744
 L 96.0013,-7.07991 L 96.0626,-7.06621 L 96.1247,-7.05638 L 96.1872,-7.05048 L 96.25,-7.04849 L 115.3,-7.04849
 L 115.363,-7.05048 L 115.425,-7.05638 L 115.487,-7.06621 L 115.549,-7.07991 L 115.609,-7.09744 L 115.668,-7.11873
 L 115.726,-7.14368 L 115.782,-7.1722 L 115.836,-7.20418 L 115.888,-7.23949 L 115.937,-7.27798 L 115.985,-7.31953
 L 116.029,-7.36395 L 116.07,-7.41107 L 116.109,-7.46071 L 116.144,-7.51268 L 116.176,-7.56674 L 116.205,-7.62273
 L 116.23,-7.68037 L 116.251,-7.73949 L 116.269,-7.7998 L 116.282,-7.86111 L 116.292,-7.92317 L 116.298,-7.9857
 L 116.3,-8.04849 L 116.3,-65.1985 L 116.298,-65.2613 L 116.292,-65.3238 L 116.282,-65.3859 L 116.269,-65.4472
 L 116.251,-65.5075 L 116.23,-65.5666 L 116.205,-65.6243 L 116.176,-65.6802 L 116.144,-65.7343 L 116.109,-65.7863
 L 116.07,-65.8359 L 116.029,-65.883 L 115.985,-65.9274 L 115.937,-65.969 L 115.888,-66.0075 L 115.836,-66.0428
 L 115.782,-66.0748 L 115.726,-66.1033 L 115.668,-66.1283 L 115.609,-66.1495 L 115.549,-66.1671 L 115.487,-66.1808
 L 115.425,-66.1906 L 115.363,-66.1965 L 115.3,-66.1985 L 97.25,-66.1985 L 97.25,-67.675 L 97.248,-67.7378
 L 97.2421,-67.8003 L 97.2323,-67.8624 L 97.2186,-67.9237 L 97.201,-67.984 L 97.1798,-68.0431 L 97.1548,-68.1008
 L 97.1263,-68.1567 L 97.0943,-68.2108 L 97.059,-68.2628 L 97.0205,-68.3124 L 96.979,-68.3595 L 96.9345,-68.4039
 L 96.8874,-68.4455 L 96.8378,-68.484 L 96.7858,-68.5193 L 96.7318,-68.5513 L 96.6758,-68.5798 L 96.6181,-68.6048
 L 96.559,-68.626 L 96.4987,-68.6436 L 96.4374,-68.6573 L 96.3753,-68.6671 L 96.3128,-68.673 L 96.25,-68.675
 L 78.2,-68.675 L 78.2,-71.485 L 78.198,-71.5478 L 78.1921,-71.6103 L 78.1823,-71.6724 L 78.1686,-71.7337
 L 78.151,-71.794 L 78.1298,-71.8531 L 78.1048,-71.9108 L 78.0763,-71.9667 L 78.0443,-72.0208 L 78.009,-72.0728
 L 77.9705,-72.1224 L 77.929,-72.1695 L 77.8845,-72.2139 L 77.8374,-72.2555 L 77.7878,-72.294 L 77.7358,-72.3293
 L 77.6817,-72.3613 L 77.6258,-72.3898 L 77.5681,-72.4147 L 77.509,-72.436 L 77.4487,-72.4536 L 77.3874,-72.4673
 L 77.3253,-72.4771 L 77.2628,-72.483 L 77.2,-72.485 L 58.15,-72.485 L 58.0872,-72.483 L 58.0247,-72.4771
 L 57.9626,-72.4673 L 57.9013,-72.4536 L 57.841,-72.436 L 57.7819,-72.4147 L 57.7242,-72.3898 L 57.6682,-72.3613
 L 57.6142,-72.3293 L 57.5622,-72.294 L 57.5126,-72.2555 L 57.4655,-72.2139 L 57.421,-72.1695 L 57.3795,-72.1224
 L 57.341,-72.0728 L 57.3057,-72.0208 L 57.2737,-71.9667 L 57.2452,-71.9108 L 57.2202,-71.8531 L 57.1989,-71.794
 L 57.1814,-71.7337 L 57.1677,-71.6724 L 57.1579,-71.6103 L 57.152,-71.5478 L 57.15,-71.485 L 57.15,-68.675
 L 39.1,-68.675 L 39.0372,-68.673 L 38.9747,-68.6671 L 38.9126,-68.6573 L 38.8513,-68.6436 L 38.791,-68.626
 L 38.7319,-68.6048 L 38.6742,-68.5798 L 38.6182,-68.5513 L 38.5642,-68.5193 L 38.5122,-68.484 L 38.4626,-68.4455
 L 38.4155,-68.4039 L 38.371,-68.3595 L 38.3295,-68.3124 L 38.291,-68.2628 L 38.2557,-68.2108 L 38.2237,-68.1567
 L 38.1952,-68.1008 L 38.1702,-68.0431 L 38.1489,-67.984 L 38.1314,-67.9237 L 38.1177,-67.8624 L 38.1079,-67.8003
 L 38.102,-67.7378 L 38.1,-67.675 L 38.1,-59.15 L 1,-59.15 L 0.93721,-59.148 L 0.87468,-59.1421
 L 0.812622,-59.1323 L 0.751312,-59.1186 L 0.690994,-59.101 L 0.631882,-59.0798 L 0.574234,-59.0548 L 0.51825,-59.0263
 L 0.464188,-58.9943 L 0.412216,-58.959 L 0.362579,-58.9205 L 0.31546,-58.879 L 0.271042,-58.8345 L 0.229492,-58.7874
 L 0.190994,-58.7378 L 0.155685,-58.6858 L 0.123703,-58.6317 L 0.0951843,-58.5758 L 0.0702362,-58.5181 L 0.0489502,-58.459
 L 0.0314178,-58.3987 L 0.0177155,-58.3374 L 0.00788879,-58.2753 L 0.00198364,-58.2128 L 0,-58.15 L 0,-1
 L 0.00198364,-0.93721 L 0.00788879,-0.87468 L 0.0177155,-0.812622 L 0.0314178,-0.751312 L 0.0489502,-0.690994 L 0.0702362,-0.631882
 L 0.0951843,-0.574234 L 0.123703,-0.51825 L 0.155685,-0.464188 L 0.190994,-0.412216 L 0.229492,-0.362579 L 0.271042,-0.31546
 L 0.31546,-0.271042 L 0.362579,-0.229492 L 0.412216,-0.190994 L 0.464188,-0.155685 L 0.51825,-0.123703 L 0.574234,-0.0951843
 L 0.631882,-0.0702362 L 0.690994,-0.0489502 L 0.751312,-0.0314178 L 0.812622,-0.0177155 L 0.87468,-0.00788879 L 0.93721,-0.00198364
 L 1,-0 L 39.1,-0 z
M 60.675,-54.96 L 60.675,-68.96 L 74.675,-68.96 L 74.675,-54.96 z
M 41.625,-51.15 L 41.625,-65.15 L 55.625,-65.15 L 55.625,-51.15 z
M 79.725,-51.15 L 79.725,-65.15 L 93.725,-65.15 L 93.725,-51.15 z
M 98.775,-48.6735 L 98.775,-62.6735 L 112.775,-62.6735 L 112.775,-48.6735 z
M 22.575,-41.625 L 22.575,-55.625 L 36.575,-55.625 L 36.575,-41.625 z
M 3.52499,-41.625 L 3.52499,-55.625 L 17.525,-55.625 L 17.525,-41.625 z
M 60.675,-35.91 L 60.675,-49.91 L 74.675,-49.91 L 74.675,-35.91 z
M 41.625,-32.1 L 41.625,-46.1 L 55.625,-46.1 L 55.625,-32.1 z
M 79.725,-32.1 L 79.725,-46.1 L 93.725,-46.1 L 93.725,-32.1 z
M 96.1684,-41.3268 L 96.0871,-41.3345 L 96.0064,-41.3473 L 95.9267,-41.3651 L 95.8483,-41.3879 L 95.7714,-41.4155
 L 95.6965,-41.448 L 95.6237,-41.485 L 95.5534,-41.5266 L 95.4859,-41.5725 L 95.4213,-41.6226 L 95.3601,-41.6766
 L 95.3023,-41.7343 L 95.2483,-41.7956 L 95.1983,-41.8601 L 95.1524,-41.9277 L 95.1108,-41.998 L 95.0737,-42.0707
 L 95.0413,-42.1457 L 95.0136,-42.2225 L 94.9908,-42.3009 L 94.973,-42.3806 L 94.9603,-42.4613 L 94.9526,-42.5426
 L 94.95,-42.6242 L 94.9526,-42.7059 L 94.9603,-42.7872 L 94.973,-42.8678 L 94.9908,-42.9475 L 95.0136,-43.026
 L 95.0413,-43.1028 L 95.0737,-43.1777 L 95.1108,-43.2505 L 95.1524,-43.3208 L 95.1983,-43.3884 L 95.2483,-43.4529
 L 95.3023,-43.5142 L 95.3601,-43.5719 L 95.4213,-43.6259 L 95.4859,-43.676 L 95.5534,-43.7219 L 95.6237,-43.7634
 L 95.6965,-43.8005 L 95.7714,-43.8329 L 95.8483,-43.8606 L 95.9267,-43.8834 L 96.0064,-43.9012 L 96.0871,-43.914
 L 96.1684,-43.9217 L 96.25,-43.9242 L 96.3316,-43.9217 L 96.4129,-43.914 L 96.4936,-43.9012 L 96.5733,-43.8834
 L 96.6517,-43.8606 L 96.7286,-43.8329 L 96.8035,-43.8005 L 96.8763,-43.7634 L 96.9466,-43.7219 L 97.0141,-43.676
 L 97.0786,-43.6259 L 97.1399,-43.5719 L 97.1976,-43.5142 L 97.2517,-43.4529 L 97.3017,-43.3884 L 97.3476,-43.3208
 L 97.3892,-43.2505 L 97.4263,-43.1777 L 97.4587,-43.1028 L 97.4864,-43.026 L 97.5092,-42.9475 L 97.527,-42.8678
 L 97.5397,-42.7872 L 97.5474,-42.7059 L 97.55,-42.6242 L 97.5474,-42.5426 L 97.5397,-42.4613 L 97.527,-42.3806
 L 97.5092,-42.3009 L 97.4864,-42.2225 L 97.4587,-42.1457 L 97.4263,-42.0707 L 97.3892,-41.998 L 97.3476,-41.9277
 L 97.3017,-41.8601 L 97.2517,-41.7956 L 97.1976,-41.7343 L 97.1399,-41.6766 L 97.0786,-41.6226 L 97.0141,-41.5725
 L 96.9466,-41.5266 L 96.8763,-41.485 L 96.8035,-41.448 L 96.7286,-41.4155 L 96.6517,-41.3879 L 96.5733,-41.3651
 L 96.4936,-41.3473 L 96.4129,-41.3345 L 96.3316,-41.3268 L 96.25,-41.3242 z
M 98.775,-29.6235 L 98.775,-43.6235 L 112.775,-43.6235 L 112.775,-29.6235 z
M 19.9684,-37.8026 L 19.8871,-37.8102 L 19.8064,-37.823 L 19.7267,-37.8408 L 19.6483,-37.8636 L 19.5714,-37.8913
 L 19.4965,-37.9237 L 19.4237,-37.9608 L 19.3534,-38.0024 L 19.2859,-38.0483 L 19.2213,-38.0983 L 19.1601,-38.1523
 L 19.1023,-38.2101 L 19.0483,-38.2713 L 18.9983,-38.3359 L 18.9524,-38.4034 L 18.9108,-38.4737 L 18.8737,-38.5465
 L 18.8413,-38.6214 L 18.8136,-38.6983 L 18.7908,-38.7767 L 18.773,-38.8564 L 18.7602,-38.9371 L 18.7526,-39.0184
 L 18.75,-39.1 L 18.7526,-39.1816 L 18.7602,-39.2629 L 18.773,-39.3436 L 18.7908,-39.4233 L 18.8136,-39.5017
 L 18.8413,-39.5786 L 18.8737,-39.6535 L 18.9108,-39.7263 L 18.9524,-39.7966 L 18.9983,-39.8641 L 19.0483,-39.9286
 L 19.1023,-39.9899 L 19.1601,-40.0477 L 19.2213,-40.1017 L 19.2859,-40.1517 L 19.3534,-40.1976 L 19.4237,-40.2392
 L 19.4965,-40.2763 L 19.5714,-40.3087 L 19.6483,-40.3364 L 19.7267,-40.3591 L 19.8064,-40.377 L 19.8871,-40.3897
 L 19.9684,-40.3974 L 20.05,-40.4 L 20.1316,-40.3974 L 20.2129,-40.3897 L 20.2936,-40.377 L 20.3733,-40.3591
 L 20.4517,-40.3364 L 20.5285,-40.3087 L 20.6035,-40.2763 L 20.6763,-40.2392 L 20.7466,-40.1976 L 20.8141,-40.1517
 L 20.8786,-40.1017 L 20.9399,-40.0477 L 20.9977,-39.9899 L 21.0517,-39.9286 L 21.1017,-39.8641 L 21.1476,-39.7966
 L 21.1892,-39.7263 L 21.2263,-39.6535 L 21.2587,-39.5786 L 21.2864,-39.5017 L 21.3091,-39.4233 L 21.327,-39.3436
 L 21.3397,-39.2629 L 21.3474,-39.1816 L 21.35,-39.1 L 21.3474,-39.0184 L 21.3397,-38.9371 L 21.327,-38.8564
 L 21.3091,-38.7767 L 21.2864,-38.6983 L 21.2587,-38.6214 L 21.2263,-38.5465 L 21.1892,-38.4737 L 21.1476,-38.4034
 L 21.1017,-38.3359 L 21.0517,-38.2713 L 20.9977,-38.2101 L 20.9399,-38.1523 L 20.8786,-38.0983 L 20.8141,-38.0483
 L 20.7466,-38.0024 L 20.6763,-37.9608 L 20.6035,-37.9237 L 20.5285,-37.8913 L 20.4517,-37.8636 L 20.3733,-37.8408
 L 20.2936,-37.823 L 20.2129,-37.8102 L 20.1316,-37.8026 L 20.05,-37.8 z
M 3.52499,-22.575 L 3.52499,-36.575 L 17.525,-36.575 L 17.525,-22.575 z
M 22.575,-22.575 L 22.575,-36.575 L 36.575,-36.575 L 36.575,-22.575 z
M 60.675,-16.86 L 60.675,-30.86 L 74.675,-30.86 L 74.675,-16.86 z
M 41.625,-13.05 L 41.625,-27.05 L 55.625,-27.05 L 55.625,-13.05 z
M 79.725,-13.05 L 79.725,-27.05 L 93.725,-27.05 L 93.725,-13.05 z
M 96.1684,-22.2768 L 96.0871,-22.2845 L 96.0064,-22.2973 L 95.9267,-22.3151 L 95.8483,-22.3379 L 95.7714,-22.3655
 L 95.6965,-22.398 L 95.6237,-22.435 L 95.5534,-22.4766 L 95.4859,-22.5225 L 95.4213,-22.5726 L 95.3601,-22.6266
 L 95.3023,-22.6843 L 95.2483,-22.7456 L 95.1983,-22.8101 L 95.1524,-22.8777 L 95.1108,-22.948 L 95.0737,-23.0207
 L 95.0413,-23.0957 L 95.0136,-23.1725 L 94.9908,-23.2509 L 94.973,-23.3306 L 94.9603,-23.4113 L 94.9526,-23.4926
 L 94.95,-23.5742 L 94.9526,-23.6559 L 94.9603,-23.7372 L 94.973,-23.8178 L 94.9908,-23.8975 L 95.0136,-23.976
 L 95.0413,-24.0528 L 95.0737,-24.1278 L 95.1108,-24.2005 L 95.1524,-24.2708 L 95.1983,-24.3384 L 95.2483,-24.4029
 L 95.3023,-24.4642 L 95.3601,-24.5219 L 95.4213,-24.5759 L 95.4859,-24.626 L 95.5534,-24.6719 L 95.6237,-24.7134
 L 95.6965,-24.7505 L 95.7714,-24.783 L 95.8483,-24.8106 L 95.9267,-24.8334 L 96.0064,-24.8512 L 96.0871,-24.864
 L 96.1684,-24.8717 L 96.25,-24.8742 L 96.3316,-24.8717 L 96.4129,-24.864 L 96.4936,-24.8512 L 96.5733,-24.8334
 L 96.6517,-24.8106 L 96.7286,-24.783 L 96.8035,-24.7505 L 96.8763,-24.7134 L 96.9466,-24.6719 L 97.0141,-24.626
 L 97.0786,-24.5759 L 97.1399,-24.5219 L 97.1976,-24.4642 L 97.2517,-24.4029 L 97.3017,-24.3384 L 97.3476,-24.2708
 L 97.3892,-24.2005 L 97.4263,-24.1278 L 97.4587,-24.0528 L 97.4864,-23.976 L 97.5092,-23.8975 L 97.527,-23.8178
 L 97.5397,-23.7372 L 97.5474,-23.6559 L 97.55,-23.5742 L 97.5474,-23.4926 L 97.5397,-23.4113 L 97.527,-23.3306
 L 97.5092,-23.2509 L 97.4864,-23.1725 L 97.4587,-23.0957 L 97.4263,-23.0207 L 97.3892,-22.948 L 97.3476,-22.8777
 L 97.3017,-22.8101 L 97.2517,-22.7456 L 97.1976,-22.6843 L 97.1399,-22.6266 L 97.0786,-22.5726 L 97.0141,-22.5225
 L 96.9466,-22.4766 L 96.8763,-22.435 L 96.8035,-22.398 L 96.7286,-22.3655 L 96.6517,-22.3379 L 96.5733,-22.3151
 L 96.4936,-22.2973 L 96.4129,-22.2845 L 96.3316,-22.2768 L 96.25,-22.2742 z
M 98.775,-10.5735 L 98.775,-24.5735 L 112.775,-24.5735 L 112.775,-10.5735 z
M 19.9684,-18.7526 L 19.8871,-18.7602 L 19.8064,-18.773 L 19.7267,-18.7908 L 19.6483,-18.8136 L 19.5714,-18.8413
 L 19.4965,-18.8737 L 19.4237,-18.9108 L 19.3534,-18.9524 L 19.2859,-18.9983 L 19.2213,-19.0483 L 19.1601,-19.1023
 L 19.1023,-19.1601 L 19.0483,-19.2213 L 18.9983,-19.2859 L 18.9524,-19.3534 L 18.9108,-19.4237 L 18.8737,-19.4965
 L 18.8413,-19.5714 L 18.8136,-19.6483 L 18.7908,-19.7267 L 18.773,-19.8064 L 18.7602,-19.8871 L 18.7526,-19.9684
 L 18.75,-20.05 L 18.7526,-20.1316 L 18.7602,-20.2129 L 18.773,-20.2936 L 18.7908,-20.3733 L 18.8136,-20.4517
 L 18.8413,-20.5285 L 18.8737,-20.6035 L 18.9108,-20.6763 L 18.9524,-20.7466 L 18.9983,-20.8141 L 19.0483,-20.8786
 L 19.1023,-20.9399 L 19.1601,-20.9977 L 19.2213,-21.0517 L 19.2859,-21.1017 L 19.3534,-21.1476 L 19.4237,-21.1892
 L 19.4965,-21.2263 L 19.5714,-21.2587 L 19.6483,-21.2864 L 19.7267,-21.3091 L 19.8064,-21.327 L 19.8871,-21.3397
 L 19.9684,-21.3474 L 20.05,-21.35 L 20.1316,-21.3474 L 20.2129,-21.3397 L 20.2936,-21.327 L 20.3733,-21.3091
 L 20.4517,-21.2864 L 20.5285,-21.2587 L 20.6035,-21.2263 L 20.6763,-21.1892 L 20.7466,-21.1476 L 20.8141,-21.1017
 L 20.8786,-21.0517 L 20.9399,-20.9977 L 20.9977,-20.9399 L 21.0517,-20.8786 L 21.1017,-20.8141 L 21.1476,-20.7466
 L 21.1892,-20.6763 L 21.2263,-20.6035 L 21.2587,-20.5285 L 21.2864,-20.4517 L 21.3091,-20.3733 L 21.327,-20.2936
 L 21.3397,-20.2129 L 21.3474,-20.1316 L 21.35,-20.05 L 21.3474,-19.9684 L 21.3397,-19.8871 L 21.327,-19.8064
 L 21.3091,-19.7267 L 21.2864,-19.6483 L 21.2587,-19.5714 L 21.2263,-19.4965 L 21.1892,-19.4237 L 21.1476,-19.3534
 L 21.1017,-19.2859 L 21.0517,-19.2213 L 20.9977,-19.1601 L 20.9399,-19.1023 L 20.8786,-19.0483 L 20.8141,-18.9983
 L 20.7466,-18.9524 L 20.6763,-18.9108 L 20.6035,-18.8737 L 20.5285,-18.8413 L 20.4517,-18.8136 L 20.3733,-18.7908
 L 20.2936,-18.773 L 20.2129,-18.7602 L 20.1316,-18.7526 L 20.05,-18.75 z
M 3.52499,-3.52499 L 3.52499,-17.525 L 17.525,-17.525 L 17.525,-3.52499 z
M 22.575,-3.52499 L 22.575,-17.525 L 36.575,-17.525 L 36.575,-3.52499 z
" stroke="black" fill="lightgray" stroke-width="0.5"/>
</svg>
