<?xml version="1.0" standalone="no"?>
<!DOCTYPE svg PUBLIC "-//W3C//DTD SVG 1.1//EN" "http://www.w3.org/Graphics/SVG/1.1/DTD/svg11.dtd">
<svg width="79mm" height="28mm" viewBox="-36 -33 79 28" xmlns="http://www.w3.org/2000/svg" version="1.1">
<title>OpenSCAD Model</title>
<path d="
M -15.1297,-5.33598 L -15.0672,-5.34189 L -15.0051,-5.35172 L -14.9438,-5.36542 L -14.8835,-5.38295 L -14.8244,-5.40424
 L -14.7667,-5.42918 L -14.7107,-5.4577 L -14.6567,-5.48969 L -14.6047,-5.52499 L -14.5551,-5.56349 L -14.5079,-5.60504
 L -14.4635,-5.64946 L -14.422,-5.69658 L -14.3835,-5.74622 L -14.3482,-5.79819 L -14.3162,-5.85225 L -14.2877,-5.90823
 L -14.2627,-5.96588 L -14.2414,-6.02499 L -14.2239,-6.08531 L -14.2102,-6.14662 L -14.2004,-6.20868 L -14.1945,-6.27121
 L -14.1925,-6.334 L -14.1925,-7.04849 L 3.8575,-7.04849 L 3.92029,-7.05048 L 3.98282,-7.05638 L 4.04488,-7.06621
 L 4.10619,-7.07991 L 4.1665,-7.09744 L 4.22562,-7.11873 L 4.28326,-7.14368 L 4.33925,-7.1722 L 4.39331,-7.20418
 L 4.44528,-7.23949 L 4.49492,-7.27798 L 4.54204,-7.31953 L 4.58646,-7.36395 L 4.62801,-7.41107 L 4.6665,-7.46071
 L 4.70181,-7.51268 L 4.7338,-7.56674 L 4.76231,-7.62273 L 4.78726,-7.68037 L 4.80855,-7.73949 L 4.82608,-7.7998
 L 4.83978,-7.86111 L 4.84961,-7.92317 L 4.85551,-7.9857 L 4.8575,-8.04849 L 4.8575,-8.57249 L 21.9075,-8.57249
 L 21.9075,-8.14374 L 21.9095,-8.08095 L 21.9154,-8.01842 L 21.9252,-7.95636 L 21.9389,-7.89505 L 21.9564,-7.83473
 L 21.9777,-7.77562 L 22.0027,-7.71797 L 22.0312,-7.66199 L 22.0632,-7.60793 L 22.0985,-7.55595 L 22.137,-7.50632
 L 22.1785,-7.4592 L 22.2229,-7.41478 L 22.2701,-7.37323 L 22.3197,-7.33473 L 22.3717,-7.29942 L 22.4257,-7.26744
 L 22.4817,-7.23892 L 22.5394,-7.21397 L 22.5985,-7.19269 L 22.6588,-7.17516 L 22.7201,-7.16145 L 22.7822,-7.15163
 L 22.8447,-7.14572 L 22.9075,-7.14374 L 41.9575,-7.14374 L 42.0203,-7.14572 L 42.0828,-7.15163 L 42.1449,-7.16145
 L 42.2062,-7.17516 L 42.2665,-7.19269 L 42.3256,-7.21397 L 42.3833,-7.23892 L 42.4392,-7.26744 L 42.4933,-7.29942
 L 42.5453,-7.33473 L 42.5949,-7.37323 L 42.642,-7.41478 L 42.6864,-7.4592 L 42.728,-7.50632 L 42.7665,-7.55595
 L 42.8018,-7.60793 L 42.8338,-7.66199 L 42.8623,-7.71797 L 42.8873,-7.77562 L 42.9085,-7.83473 L 42.9261,-7.89505
 L 42.9398,-7.95636 L 42.9496,-8.01842 L 42.9555,-8.08095 L 42.9575,-8.14374 L 42.9575,-31.9562 L 42.9555,-32.019
 L 42.9496,-32.0816 L 42.9398,-32.1436 L 42.9261,-32.2049 L 42.9085,-32.2652 L 42.8873,-32.3244 L 42.8623,-32.382
 L 42.8338,-32.438 L 42.8018,-32.4921 L 42.7665,-32.544 L 42.728,-32.5937 L 42.6864,-32.6408 L 42.642,-32.6852
 L 42.5949,-32.7267 L 42.5453,-32.7652 L 42.4933,-32.8006 L 42.4392,-32.8325 L 42.3833,-32.8611 L 42.3256,-32.886
 L 42.2665,-32.9073 L 42.2062,-32.9248 L 42.1449,-32.9385 L 42.0828,-32.9483 L 42.0203,-32.9543 L 41.9575,-32.9562
 L 22.9075,-32.9562 L 22.8447,-32.9543 L 22.7822,-32.9483 L 22.7201,-32.9385 L 22.6588,-32.9248 L 22.5985,-32.9073
 L 22.5394,-32.886 L 22.4817,-32.8611 L 22.4257,-32.8325 L 22.3717,-32.8006 L 22.3197,-32.7652 L 22.2701,-32.7267
 L 22.2229,-32.6852 L 22.1785,-32.6408 L 22.137,-32.5937 L 22.0985,-32.544 L 22.0632,-32.4921 L 22.0312,-32.438
 L 22.0027,-32.382 L 21.9777,-32.3244 L 21.9564,-32.2652 L 21.9389,-32.2049 L 21.9252,-32.1436 L 21.9154,-32.0816
 L 21.9095,-32.019 L 21.9075,-31.9562 L 21.9075,-29.6225 L 3.8575,-29.6225 L 3.79471,-29.6205 L 3.73218,-29.6146
 L 3.67012,-29.6048 L 3.60881,-29.5911 L 3.54849,-29.5735 L 3.48938,-29.5523 L 3.43173,-29.5273 L 3.37575,-29.4988
 L 3.32169,-29.4668 L 3.26971,-29.4315 L 3.22008,-29.393 L 3.17296,-29.3515 L 3.12854,-29.307 L 3.08699,-29.2599
 L 3.04849,-29.2103 L 3.01318,-29.1583 L 2.9812,-29.1042 L 2.95268,-29.0483 L 2.92773,-28.9906 L 2.90645,-28.9315
 L 2.88892,-28.8712 L 2.87521,-28.8099 L 2.86539,-28.7478 L 2.85948,-28.6853 L 2.8575,-28.6225 L 2.8575,-28.0985
 L -15.1925,-28.0985 L -15.2553,-28.0965 L -15.3178,-28.0906 L -15.3799,-28.0808 L -15.4412,-28.0671 L -15.5015,-28.0495
 L -15.5606,-28.0283 L -15.6183,-28.0033 L -15.6742,-27.9748 L -15.7283,-27.9428 L -15.7803,-27.9075 L -15.8299,-27.869
 L -15.877,-27.8275 L -15.9214,-27.783 L -15.963,-27.7359 L -16.0015,-27.6863 L -16.0368,-27.6343 L -16.0688,-27.5802
 L -16.0973,-27.5243 L -16.1223,-27.4666 L -16.1435,-27.4075 L -16.1611,-27.3472 L -16.1748,-27.2859 L -16.1846,-27.2238
 L -16.1905,-27.1613 L -16.1925,-27.0985 L -16.1925,-26.384 L -34.2425,-26.384 L -34.3053,-26.382 L -34.3678,-26.3761
 L -34.4299,-26.3663 L -34.4912,-26.3526 L -34.5515,-26.335 L -34.6106,-26.3138 L -34.6683,-26.2888 L -34.7242,-26.2603
 L -34.7783,-26.2283 L -34.8303,-26.193 L -34.8799,-26.1545 L -34.927,-26.1129 L -34.9715,-26.0685 L -35.013,-26.0214
 L -35.0515,-25.9718 L -35.0868,-25.9198 L -35.1188,-25.8657 L -35.1473,-25.8098 L -35.1723,-25.7521 L -35.1935,-25.693
 L -35.2111,-25.6327 L -35.2248,-25.5714 L -35.2346,-25.5093 L -35.2405,-25.4468 L -35.2425,-25.384 L -35.2425,-6.334
 L -35.2405,-6.27121 L -35.2346,-6.20868 L -35.2248,-6.14662 L -35.2111,-6.08531 L -35.1935,-6.02499 L -35.1723,-5.96588
 L -35.1473,-5.90823 L -35.1188,-5.85225 L -35.0868,-5.79819 L -35.0515,-5.74622 L -35.013,-5.69658 L -34.9715,-5.64946
 L -34.927,-5.60504 L -34.8799,-5.56349 L -34.8303,-5.52499 L -34.7783,-5.48969 L -34.7242,-5.4577 L -34.6683,-5.42918
 L -34.6106,-5.40424 L -34.5515,-5.38295 L -34.4912,-5.36542 L -34.4299,-5.35172 L -34.3678,-5.34189 L -34.3053,-5.33598
 L -34.2425,-5.334 L -15.1925,-5.334 z
M 25.4325,-13.05 L 25.4325,-27.05 L 39.4325,-27.05 L 39.4325,-13.05 z
M 6.38249,-12.0975 L 6.38249,-26.0975 L 20.3825,-26.0975 L 20.3825,-12.0975 z
M -12.6675,-10.5735 L -12.6675,-24.5735 L 1.33249,-24.5735 L 1.33249,-10.5735 z
M -31.7175,-8.85899 L -31.7175,-22.859 L -17.7175,-22.859 L -17.7175,-8.85899 z
M 3.77586,-17.3238 L 3.69456,-17.3315 L 3.61389,-17.3443 L 3.53419,-17.3621 L 3.45576,-17.3849 L 3.37894,-17.4125
 L 3.30399,-17.445 L 3.23122,-17.482 L 3.16092,-17.5236 L 3.09337,-17.5695 L 3.02884,-17.6196 L 2.96758,-17.6736
 L 2.90984,-17.7313 L 2.85582,-17.7926 L 2.80577,-17.8571 L 2.75987,-17.9247 L 2.71829,-17.995 L 2.68121,-18.0677
 L 2.64879,-18.1427 L 2.62112,-18.2195 L 2.59833,-18.2979 L 2.58052,-18.3776 L 2.56775,-18.4583 L 2.56006,-18.5396
 L 2.5575,-18.6212 L 2.56006,-18.7029 L 2.56775,-18.7842 L 2.58052,-18.8648 L 2.59833,-18.9445 L 2.62112,-19.023
 L 2.64879,-19.0998 L 2.68121,-19.1748 L 2.71829,-19.2475 L 2.75987,-19.3178 L 2.80577,-19.3854 L 2.85582,-19.4499
 L 2.90984,-19.5112 L 2.96758,-19.5689 L 3.02884,-19.6229 L 3.09337,-19.673 L 3.16092,-19.7189 L 3.23122,-19.7604
 L 3.30399,-19.7975 L 3.37894,-19.83 L 3.45576,-19.8576 L 3.53419,-19.8804 L 3.61389,-19.8982 L 3.69456,-19.911
 L 3.77586,-19.9187 L 3.8575,-19.9212 L 3.93912,-19.9187 L 4.02043,-19.911 L 4.10109,-19.8982 L 4.18079,-19.8804
 L 4.25922,-19.8576 L 4.33606,-19.83 L 4.41101,-19.7975 L 4.48376,-19.7604 L 4.55406,-19.7189 L 4.62161,-19.673
 L 4.68614,-19.6229 L 4.74741,-19.5689 L 4.80515,-19.5112 L 4.85916,-19.4499 L 4.90921,-19.3854 L 4.95512,-19.3178
 L 4.99669,-19.2475 L 5.03377,-19.1748 L 5.06621,-19.0998 L 5.09387,-19.023 L 5.11665,-18.9445 L 5.13446,-18.8648
 L 5.14725,-18.7842 L 5.15492,-18.7029 L 5.15749,-18.6212 L 5.15492,-18.5396 L 5.14725,-18.4583 L 5.13446,-18.3776
 L 5.11665,-18.2979 L 5.09387,-18.2195 L 5.06621,-18.1427 L 5.03377,-18.0677 L 4.99669,-17.995 L 4.95512,-17.9247
 L 4.90921,-17.8571 L 4.85916,-17.7926 L 4.80515,-17.7313 L 4.74741,-17.6736 L 4.68614,-17.6196 L 4.62161,-17.5695
 L 4.55406,-17.5236 L 4.48376,-17.482 L 4.41101,-17.445 L 4.33606,-17.4125 L 4.25922,-17.3849 L 4.18079,-17.3621
 L 4.10109,-17.3443 L 4.02043,-17.3315 L 3.93912,-17.3238 L 3.8575,-17.3212 z
" stroke="black" fill="lightgray" stroke-width="0.5"/>
</svg>
